<?xml version="1.0" encoding="UTF-8"?><svg id="INSTRUCTIONS" xmlns="http://www.w3.org/2000/svg" xmlns:xlink="http://www.w3.org/1999/xlink" viewBox="0 0 1250 703"><defs><style>.cls-1,.cls-2{fill:#fff;}.cls-2{fill-rule:evenodd;}.cls-3{clip-path:url(#clippath);}.cls-4{fill:none;}</style><clipPath id="clippath"><rect class="cls-4" x="386.3125" y="58.7229" width="491.375" height="569.235"/></clipPath></defs><g class="cls-3"><path class="cls-1" d="M439.6498,497.3675c.0046,.0056,.0086,.0104,.0133,.016-.0039-.0048-.0087-.0104-.0133-.016h0Zm372.7022-.0032c-.0072,.008-.0136,.016-.02,.024,.0072-.008,.0136-.016,.02-.024h0Zm-186.2322,78.255c5.2989,.0986,8.3361-1.1773,16.3525-4.8517l156.8225-65.7042c2.607-1.0498,4.3131-1.8953,6.4729-2.9644l1.2838-.6339c2.2359-1.6677,4.8276-3.6592,5.3277-4.1336,4.2819-5.1065,4.7074-9.4774,5.2002-14.535,.0465-.4737,.0922-.9481,.1427-1.4241,.2444-2.3865,.363-4.9727,.363-7.8994V161.9886c0-24.6219-8.3065-32.9317-32.9199-32.9317H466.8347c-24.6132,0-32.9199,8.3098-32.9199,32.9317V473.473c0,2.9323,.119,5.5184,.3631,7.9042,.0493,.4712,.0955,.9456,.1417,1.4193,.493,5.0592,.9196,9.4308,5.1997,14.535,.5009,.4744,3.0913,2.4651,5.328,4.1328l1.2906,.6363c2.1576,1.0691,3.863,1.9137,6.4354,2.9491l156.7815,65.6859c8.1118,3.7177,11.1651,4.9919,16.4743,4.8813l.1435-.0024,.0473,.0048h0Zm-.8447,4.8132c-5.9552,0-9.6561-1.5836-17.751-5.294l-156.6775-65.6402c-2.7141-1.0923-4.5815-2.0179-6.743-3.0886l-1.8525-.9577c-5.5753-4.1489-6.0958-4.7692-6.2672-4.9727-5.2827-6.2669-5.825-11.8335-6.3501-17.2165-.0454-.4632-.09-.9272-.1385-1.392-.2622-2.5549-.389-5.3005-.389-8.3979V161.9886c0-27.1591,10.5778-37.7401,37.7283-37.7401h318.3307c27.1506,0,37.7282,10.581,37.7282,37.7401V473.473c0,3.0918-.1274,5.8382-.3887,8.3938-.0497,.4688-.0946,.9328-.1395,1.396-.5249,5.383-1.0675,10.9495-6.3527,17.2197-.1675,.1996-.6884,.8198-6.2646,4.9695l-.1779,.1322-1.6677,.823c-2.1638,1.0715-4.0326,1.9979-6.7814,3.1038l-156.7183,65.6594c-8.3049,3.8074-11.9929,5.375-18.3584,5.2556l-.0697-.0008c-.2372,.0048-.4704,.0072-.6996,.0072h0Z"/></g><polygon class="cls-1" points="515.3553 283.5488 546.3558 283.5488 546.3558 259.5693 515.3553 259.5693 515.3553 210.6151 547.5899 210.6151 547.5899 186.6356 489.0297 186.6356 489.0297 359.6993 548.0804 359.6993 548.0804 335.719 515.3553 335.719 515.3553 283.5488 515.3553 283.5488"/><path class="cls-1" d="M737.4028,288.7434v39.0642c0,6.9225-3.2,10.1345-9.8395,10.1345h-4.9238c-6.888,0-10.088-3.212-10.088-10.1345v-109.2803c0-6.9233,3.2-10.1345,10.088-10.1345h4.4301c6.6436,0,9.8428,3.2112,9.8428,10.1345v33.8735h25.8315v-35.3569c0-21.5077-10.3332-31.8922-31.7354-31.8922h-12.7975c-21.4021,0-31.9854,10.6295-31.9854,32.1414v111.7478c0,21.5119,10.5833,32.1417,31.9854,32.1417h13.042c21.407,0,31.9854-10.6298,31.9854-32.1417v-40.2975h-25.8355Z"/><polygon class="cls-1" points="645.9832 359.6993 672.3132 359.6993 672.3132 186.6356 645.9832 186.6356 645.9832 359.6993 645.9832 359.6993"/><path class="cls-1" d="M607.7814,263.525c0,6.9225-3.1952,10.1393-9.8396,10.1393h-10.8269v-63.7889h10.8269c6.6444,0,9.8396,3.2128,9.8396,10.1353v43.5143h0Zm-5.6595-76.8895h-41.3337v173.0637h26.3267v-62.7992h15.007c21.407,0,31.9854-10.6289,31.9854-32.1361v-45.9883c0-21.5111-10.5785-32.1402-31.9854-32.1402h0Z"/><polygon class="cls-2" points="551.1361 516.1828 701.8415 516.1828 624.9193 541.5494 551.1361 516.1828 551.1361 516.1828 551.1361 516.1828"/><path class="cls-1" d="M808.9878,564.1617c1.4177,0,2.4619-.7469,2.4619-2.163,0-1.4177-1.0442-2.0893-2.4619-2.0893h-3.6536v4.2522h3.6536Zm-5.8911-6.4144h5.8911c2.9091,0,4.6249,1.4914,4.6249,4.0271,0,2.2375-1.2678,3.6551-3.1327,4.1023l3.1327,4.1761v.8951h-2.0885l-3.5061-4.7732h-2.6839v4.7732h-2.2375v-13.2007h0Zm15.2138,6.6372c0-6.041-4.4742-10.6642-10.1425-10.6642s-10.1425,4.6232-10.1425,10.6642,4.4742,10.6658,10.1425,10.6658,10.1425-4.6249,10.1425-10.6658h0Zm-22.5978,0c0-7.3088,5.52-12.828,12.4553-12.828s12.4553,5.5192,12.4553,12.828-5.5193,12.8279-12.4553,12.8279-12.4553-5.5192-12.4553-12.8279h0Z"/><path class="cls-1" d="M516.2168,455.2741c-4.0823,0-7.8534-.6748-11.3125-2.0235-3.4607-1.3488-6.4589-3.2224-8.9977-5.6202-2.5388-2.3978-4.5306-5.2572-5.9737-8.5798-1.4447-3.3218-2.1655-6.9562-2.1655-10.9038v-.1491c0-3.8467,.7091-7.4185,2.128-10.7155,1.4189-3.2978,3.3723-6.1828,5.8618-8.6551,2.4887-2.4731,5.4626-4.4085,8.9233-5.8077,3.4592-1.3976,7.2056-2.0981,11.2383-2.0981,4.6297,0,8.6247,.674,11.9849,2.0227,3.3603,1.3496,6.4336,3.2224,9.2217,5.621l-8.5124,10.2651c-1.8921-1.598-3.8219-2.8209-5.7877-3.6712-1.9666-.8487-4.2442-1.2742-6.8319-1.2742-1.8921,0-3.6472,.375-5.2644,1.1243-1.6179,.7493-3.0243,1.7743-4.2186,3.0726-1.195,1.2991-2.1412,2.8225-2.8378,4.5704-.6981,1.7494-1.0456,3.6223-1.0456,5.6202v.1498c0,2.0981,.3475,4.0471,1.0456,5.8454,.6966,1.7983,1.6803,3.3338,2.9497,4.608s2.7627,2.2744,4.4793,2.9973c1.7182,.7245,3.6223,1.0875,5.7132,1.0875,3.3851,0,6.1724-.7245,8.3634-2.1734v-6.3703h-10.3052v-10.6402h24.0444v23.6044c-2.7881,2.2984-6.0738,4.2226-9.8564,5.7701-3.7834,1.5475-8.0645,2.3232-12.844,2.3232h0Z"/><path class="cls-1" d="M578.4686,433.4921l-5.8246-14.9116-5.8991,14.9116h11.7237Zm-12.6942-32.1465h13.9636l22.2524,52.829h-15.5319l-3.8082-9.3667h-20.1608l-3.7345,9.3667h-15.233l22.2524-52.829h0Z"/><polygon class="cls-1" points="607.0946 401.7246 622.4021 401.7246 634.8727 422.0313 647.3424 401.7246 662.65 401.7246 662.65 454.1794 648.2392 454.1794 648.2392 424.0548 634.8727 444.5874 634.5738 444.5874 621.2818 424.2046 621.2818 454.1794 607.0946 454.1794 607.0946 401.7246 607.0946 401.7246"/><polygon class="cls-1" points="672.3317 401.7246 714.3722 401.7246 714.3722 414.0886 686.6686 414.0886 686.6686 422.0313 711.7581 422.0313 711.7581 433.4968 686.6686 433.4968 686.6686 441.8146 714.7457 441.8146 714.7457 454.1794 672.3317 454.1794 672.3317 401.7246 672.3317 401.7246"/><path class="cls-1" d="M743.1007,455.1234c-4.6794,0-9.1223-.7245-13.3289-2.1726-4.2073-1.4481-7.9282-3.6215-11.1635-6.5194l8.0644-9.6665c5.2267,4.1961,10.8766,6.295,16.9504,6.295,1.9418,0,3.422-.3117,4.443-.9368,1.0194-.6251,1.5306-1.5106,1.5306-2.6607v-.1498c0-.5498-.1242-1.0362-.3734-1.4609-.2492-.4248-.7092-.8359-1.3808-1.2366-.6724-.3991-1.5683-.787-2.6887-1.162-1.1196-.3742-2.5757-.7605-4.3676-1.1612-2.7897-.6483-5.3766-1.3608-7.7664-2.1357-2.3898-.7742-4.4686-1.7727-6.2349-2.9972-1.7679-1.2229-3.1623-2.7472-4.1825-4.5712-1.0202-1.8232-1.5307-4.0839-1.5307-6.7814v-.1499c0-2.4467,.4608-4.6954,1.3824-6.7445,.92-2.0476,2.2639-3.8211,4.0318-5.3197,1.7663-1.4986,3.8948-2.6606,6.3848-3.4845,2.4884-.8246,5.3012-1.2366,8.4371-1.2366,4.4806,0,8.4756,.5874,11.9849,1.7607,3.5101,1.174,6.6837,2.9107,9.5215,5.2075l-7.2438,10.2667c-2.389-1.6974-4.8413-2.9852-7.3552-3.8595-2.514-.8727-4.9407-1.3111-7.2807-1.3111-1.7423,0-3.0494,.3254-3.9197,.9745-.8711,.6491-1.3071,1.4489-1.3071,2.3978v.1498c0,.5994,.137,1.1244,.4111,1.5732,.2733,.4504,.7461,.8615,1.4185,1.2366,.6723,.375,1.5932,.7501,2.7624,1.1236,1.1692,.375,2.6518,.7629,4.4438,1.162,2.9868,.6499,5.6867,1.412,8.1021,2.2856,2.413,.8743,4.467,1.9362,6.1604,3.1847,1.6917,1.2494,2.9868,2.7608,3.8828,4.5335,.8959,1.7743,1.3439,3.8852,1.3439,6.3319v.1499c0,2.6975-.5113,5.0953-1.5306,7.1941-1.021,2.0981-2.4523,3.8844-4.2939,5.3574-1.8424,1.4746-4.0575,2.5981-6.646,3.3723-2.5886,.7742-5.4767,1.1612-8.6615,1.1612h0Z"/></svg>