<?xml version="1.0" encoding="UTF-8"?><svg id="INSTRUCTIONS" xmlns="http://www.w3.org/2000/svg" viewBox="0 0 1250 703"><defs><style>.cls-1{fill:#fff;}</style></defs><path class="cls-1" d="M791.6662,534.1974H463.2704c-9.3317,0-18.2812-3.7062-24.8798-10.3025-6.5985-6.5963-10.3055-15.5425-10.3055-24.871V205.9122c0-9.3286,3.707-18.2751,10.3055-24.8714,6.5985-6.5963,15.548-10.3021,24.8798-10.3021h328.3958c9.3315,0,18.2809,3.7058,24.8792,10.3021,6.5983,6.5963,10.3056,15.5428,10.3056,24.8714V499.0239c0,9.3284-3.7073,18.2747-10.3056,24.871-6.5983,6.5962-15.5477,10.3025-24.8792,10.3025h0Zm-316.6674-76.2089c0,4.6637,1.8534,9.1373,5.1527,12.4355,3.2993,3.2981,7.7741,5.1507,12.4398,5.1507h64.506v-23.4483h-52.7775c-1.5553,0-3.0469-.6179-4.1466-1.7176-1.0997-1.0987-1.7176-2.5899-1.7176-4.1445v-35.1734c0-1.5556,.6179-3.0458,1.7176-4.1455,1.0997-1.0997,2.5914-1.7176,4.1466-1.7176h52.7775v-23.4483h-64.506c-4.6658,0-9.1406,1.8526-12.4398,5.1507-3.2993,3.2981-5.1527,7.7718-5.1527,12.4355v58.6228Zm93.8268-211.0406c0-4.6643-1.8526-9.1376-5.1528-12.4357-3.2992-3.2981-7.7739-5.151-12.4396-5.151h-58.6419c-4.6658,0-9.1406,1.8529-12.4398,5.151-3.2993,3.2981-5.1527,7.7714-5.1527,12.4357v58.6227c0,4.6637,1.8534,9.1373,5.1527,12.4355,3.2993,3.2981,7.7741,5.1507,12.4398,5.1507h41.0494v-23.4483h-29.3209c-1.5553,0-3.0469-.6179-4.1466-1.7176s-1.7176-2.5899-1.7176-4.1455v-35.173c0-1.5548,.6179-3.0458,1.7176-4.1452s2.5914-1.717,4.1466-1.717h35.1851c1.5556,0,3.0468,.6176,4.1465,1.717,1.0997,1.0994,1.7176,2.5904,1.7176,4.1452v70.3465c0,1.5556-.6179,3.0458-1.7176,4.1455-1.0997,1.0997-2.5909,1.7176-4.1465,1.7176h-64.5061v23.4483h76.2344c4.6658,0,9.1405-1.8526,12.4396-5.1507,3.3002-3.2981,5.1528-7.7718,5.1528-12.4355v-93.7961Zm0,152.4178v58.6228c0,4.6637,1.8536,9.1373,5.1528,12.4355,3.2992,3.2981,7.7749,5.1507,12.4407,5.1507h58.6414c4.6658,0,9.1405-1.8526,12.4396-5.1507,3.2992-3.2982,5.1528-7.7718,5.1528-12.4355v-58.6228c0-4.6637-1.8536-9.1373-5.1528-12.4355-3.2992-3.2981-7.7739-5.1507-12.4396-5.1507h-58.6414c-4.6658,0-9.1415,1.8526-12.4407,5.1507-3.2992,3.2981-5.1528,7.7718-5.1528,12.4355h0Zm105.5556-152.4178c0-4.6643-1.8526-9.1376-5.1518-12.4357-3.3002-3.2981-7.7749-5.151-12.4407-5.151h-58.6414c-4.6658,0-9.1405,1.8529-12.4407,5.151-3.2992,3.2981-5.1518,7.7714-5.1518,12.4357v58.6227c0,4.6637,1.8526,9.1373,5.1518,12.4355,3.3002,3.2981,7.7749,5.1507,12.4407,5.1507h58.6414c4.6658,0,9.1405-1.8526,12.4407-5.1507,3.2992-3.2981,5.1518-7.7718,5.1518-12.4355v-58.6227Zm105.5567,0c0-4.6643-1.8536-9.1376-5.1528-12.4357-3.3002-3.2981-7.7749-5.151-12.4407-5.151h-58.6414c-4.6657,0-9.1405,1.8529-12.4396,5.151-3.3002,3.2981-5.1528,7.7714-5.1528,12.4357v58.6227c0,4.6637,1.8526,9.1373,5.1528,12.4355,3.2992,3.2981,7.7739,5.1507,12.4396,5.1507h41.049v-23.4483h-29.3207c-1.5556,0-3.0468-.6179-4.1465-1.7176-1.0997-1.0997-1.7176-2.5899-1.7176-4.1455v-35.173c0-1.5548,.6179-3.0458,1.7176-4.1452,1.0997-1.0994,2.5909-1.717,4.1465-1.717h35.1849c1.5556,0,3.0468,.6176,4.1465,1.717,1.0997,1.0994,1.7176,2.5904,1.7176,4.1452v70.3465c0,1.5556-.6178,3.0458-1.7176,4.1455-1.0997,1.0997-2.5909,1.7176-4.1465,1.7176h-64.5056v23.4483h76.2339c4.6658,0,9.1405-1.8526,12.4407-5.1507,3.2992-3.2981,5.1528-7.7718,5.1528-12.4355v-93.7961Zm0,134.8316h-87.9632c-4.6658,0-9.1405,1.8526-12.4407,5.1507-3.2992,3.2981-5.1528,7.7718-5.1528,12.4355v76.209h23.4576v-64.4838c0-1.5556,.6178-3.0458,1.7176-4.1455,1.0997-1.0997,2.5909-1.7176,4.1465-1.7176h11.7283v70.3469h23.4566v-70.3469h17.5924v70.3469h23.4576v-93.7952Zm-134.8774-82.071h-35.1849c-1.5556,0-3.0468-.6179-4.1466-1.7176-1.0997-1.0997-1.7176-2.5899-1.7176-4.1455v-35.173c0-1.5548,.6179-3.0458,1.7176-4.1452,1.0997-1.0994,2.591-1.717,4.1466-1.717h35.1849c1.5556,0,3.0468,.6176,4.1466,1.717,1.0997,1.0994,1.7176,2.5904,1.7176,4.1452v35.173c0,1.5556-.6179,3.0458-1.7176,4.1455-1.0997,1.0997-2.591,1.7176-4.1466,1.7176Zm-46.9131,105.5193h35.1849c1.5556,0,3.0468,.6179,4.1465,1.7176,1.0997,1.0997,1.7176,2.5899,1.7176,4.1455v35.1734c0,1.5546-.6179,3.0458-1.7176,4.1445-1.0997,1.0997-2.5909,1.7176-4.1465,1.7176h-35.1849c-1.5556,0-3.0468-.6179-4.1465-1.7176-1.0997-1.0987-1.7176-2.5899-1.7176-4.1445v-35.1734c0-1.5556,.6179-3.0458,1.7176-4.1455,1.0997-1.0997,2.5909-1.7176,4.1465-1.7176Z"/></svg>