<svg id="Layer_1" data-name="Layer 1" xmlns="http://www.w3.org/2000/svg" xmlns:xlink="http://www.w3.org/1999/xlink" viewBox="0 0 150 44"><defs><style>.cls-1{fill:none;}.cls-2{fill:#fff;}.cls-3{fill:url(#linear-gradient);}.cls-4{clip-path:url(#clip-path);}.cls-5{fill:url(#linear-gradient-2);}.cls-6{fill:#961f34;}.cls-7{fill:#6e7071;}</style><linearGradient id="linear-gradient" x1="-2159.1894" y1="1039.8034" x2="-2134.0399" y2="1039.8034" gradientTransform="matrix(-1, 0, 0, 1, -2125.2388, -1021.89)" gradientUnits="userSpaceOnUse"><stop offset="0" stop-color="#de818b"/><stop offset="0.0159" stop-color="#dc7e88"/><stop offset="0.2658" stop-color="#c65863"/><stop offset="0.4889" stop-color="#b73d4d"/><stop offset="0.6749" stop-color="#ad2c42"/><stop offset="0.8011" stop-color="#ab243e"/><stop offset="1" stop-color="#ab243e"/></linearGradient><clipPath id="clip-path"><path class="cls-1" d="M33.6625,12.7971a59.3916,59.3916,0,0,1-.2859,14.0805A98.0006,98.0006,0,0,1,9.45,28.0306c-1.4907-9.4773.0537-20.5054.0537-20.5054,10.388.528,24.1587,5.2719,24.1587,5.2719"/></clipPath><linearGradient id="linear-gradient-2" x1="-1135.6697" y1="990.3807" x2="-1134.2524" y2="990.3807" gradientTransform="translate(-25618.0399 -4925.7829) rotate(-127.9716) scale(17.3366)" xlink:href="#linear-gradient"/></defs><g id="Layer_1-2" data-name="Layer 1"><path class="cls-2" d="M149,.9778V43.0222H1V.9778H149M150,0H0V44H150Z"/><path id="SVGID" class="cls-3" d="M33.6625,12.7971a59.3916,59.3916,0,0,1-.2859,14.0805A98.0006,98.0006,0,0,1,9.45,28.0306c-1.4907-9.4773.0537-20.5054.0537-20.5054,10.388.528,24.1587,5.2719,24.1587,5.2719"/><g class="cls-4"><polygon class="cls-5" points="44.866 20.956 24.379 -5.29 -2.522 15.707 17.962 41.952 44.866 20.956"/></g><path class="cls-6" d="M45.8506,14.8858a3.42,3.42,0,0,0-1.2072-.9409,3.9074,3.9074,0,0,0-1.6508-.32q-3.4254,0-3.4257,4.7747,0,4.2777,3.408,4.2774a7.3624,7.3624,0,0,0,1.9437-.2483,13.3647,13.3647,0,0,0,1.7128-.5854l.586,1.9875a6.7063,6.7063,0,0,1-.9232.4259,8.3873,8.3873,0,0,1-1.0915.3284,10.85,10.85,0,0,1-1.189.2043,10.4794,10.4794,0,0,1-1.1984.0709q-3.1594,0-4.5437-1.7216a7.7878,7.7878,0,0,1-1.3667-4.9165,7.0262,7.0262,0,0,1,1.5622-4.9785,5.7967,5.7967,0,0,1,4.4374-1.66,7.2583,7.2583,0,0,1,1.225.1063,6.4718,6.4718,0,0,1,1.2066.3285,5.9264,5.9264,0,0,1,1.1092.5592,4.26,4.26,0,0,1,.9321.8163Z"/><path class="cls-6" d="M47.7141,20.1394a4.8471,4.8471,0,0,1,1.119-3.4965,4.7869,4.7869,0,0,1,3.5674-1.1535,5.63,5.63,0,0,1,2.0678.3283,3.1689,3.1689,0,0,1,1.3224.9408,3.73,3.73,0,0,1,.71,1.4909,8.4057,8.4057,0,0,1,.2132,1.9792,4.79,4.79,0,0,1-1.127,3.4871A4.87,4.87,0,0,1,51.992,24.86a5.63,5.63,0,0,1-2.0678-.3284,3.1,3.1,0,0,1-1.3135-.9409,3.6841,3.6841,0,0,1-.6923-1.4819A8.6081,8.6081,0,0,1,47.7141,20.1394Zm4.6864-2.9461a1.7292,1.7292,0,0,0-1.66.7808,4.8982,4.8982,0,0,0-.4347,2.3248,8.0282,8.0282,0,0,0,.0709,1.1,3.04,3.04,0,0,0,.2574.9049,1.494,1.494,0,0,0,.5144.6124,1.4744,1.4744,0,0,0,.8434.2221,1.7863,1.7863,0,0,0,1.704-.7808,4.728,4.728,0,0,0,.4436-2.2894,8.2471,8.2471,0,0,0-.0708-1.1093,3.0684,3.0684,0,0,0-.2575-.9137,1.52,1.52,0,0,0-.5322-.6214A1.56,1.56,0,0,0,52.4005,17.1933Z"/><path class="cls-6" d="M57.3692,15.7025h2.3785l.0532.6209a4.38,4.38,0,0,1,.9762-.4791,6.1746,6.1746,0,0,1,1.9344-.3549,3.9134,3.9134,0,0,1,1.4288.222,2.2242,2.2242,0,0,1,.8965.6208,2.2845,2.2845,0,0,1,.47.9852,5.8671,5.8671,0,0,1,.1329,1.2958V24.648H63.1022V19.1631c0-.2241-.0091-.4405-.0265-.6474a1.381,1.381,0,0,0-.1512-.5416.9419.9419,0,0,0-.3726-.3726,1.36,1.36,0,0,0-.6745-.1418,3.1593,3.1593,0,0,0-1.065.1594,4.6952,4.6952,0,0,0-.7276.3728V24.648H57.5472v-6.55Z"/><path class="cls-6" d="M67.4684,14.0334l2.5386-.4612v2.13h3.0709v1.8634H70.007v3.6561q0,.3378.0265.64a1.47,1.47,0,0,0,.1418.5322.8951.8951,0,0,0,.355.3727,1.2645,1.2645,0,0,0,.6479.1418,3.9214,3.9214,0,0,0,.994-.1158,3.9944,3.9944,0,0,0,.8518-.3283l.39,1.6685a6.3927,6.3927,0,0,1-3.053.7277,3.969,3.969,0,0,1-1.4464-.2221,2.0761,2.0761,0,0,1-.8789-.6208,2.2267,2.2267,0,0,1-.4347-.9763,6.5548,6.5548,0,0,1-.1152-1.2872V17.565H65.96V15.9141l1.5085-.1777Z"/><path class="cls-6" d="M76.0414,20.7785a2.936,2.936,0,0,0,.355,1.5085,2.0743,2.0743,0,0,0,1.9171.7815,5.5313,5.5313,0,0,0,.9409-.0715A5.6027,5.6027,0,0,0,80.63,22.58q.2925-.1338.5766-.2575l.479,1.5794a5.5,5.5,0,0,1-.6834.3373,6.6527,6.6527,0,0,1-.9231.3106q-.5056.133-1.0649.2221a7.1148,7.1148,0,0,1-1.11.0886,4.3628,4.3628,0,0,1-3.4782-1.1889,5.4684,5.4684,0,0,1-.9941-3.55q0-4.6317,4.4374-4.6323a5.15,5.15,0,0,1,1.9964.3284,2.8517,2.8517,0,0,1,1.2067.9137,3.4037,3.4037,0,0,1,.5947,1.3845,8.946,8.946,0,0,1,.16,1.7571v.9054H76.0407Zm3.16-1.6509a2.925,2.925,0,0,0-.3106-1.4818,1.1283,1.1283,0,0,0-1.0561-.5234,1.76,1.76,0,0,0-1.278.417,1.8044,1.8044,0,0,0-.479,1.216.9013.9013,0,0,0-.0178.1779v.1954h3.1416Z"/><path class="cls-6" d="M82.4664,15.7025h2.3785l.0531.6209a4.4032,4.4032,0,0,1,.9764-.4791,6.1771,6.1771,0,0,1,1.9348-.3549,3.9134,3.9134,0,0,1,1.4288.222,2.2242,2.2242,0,0,1,.8965.6208,2.29,2.29,0,0,1,.47.9852,5.8546,5.8546,0,0,1,.133,1.2958V24.648H88.2V19.1631c0-.2241-.0092-.4405-.0266-.6474a1.381,1.381,0,0,0-.1512-.5416.9419.9419,0,0,0-.3726-.3726,1.3581,1.3581,0,0,0-.6745-.1418,3.1593,3.1593,0,0,0-1.065.1594,4.6516,4.6516,0,0,0-.7276.3728V24.648H82.6449v-6.55Z"/><path class="cls-6" d="M92.5656,14.0334l2.5385-.4612v2.13H98.175v1.8634H95.1041v3.6561q0,.3378.0266.64a1.4605,1.4605,0,0,0,.1418.5322.892.892,0,0,0,.355.3727,1.2665,1.2665,0,0,0,.6479.1418,3.9214,3.9214,0,0,0,.994-.1158,4.017,4.017,0,0,0,.8517-.3283l.39,1.6685a6.39,6.39,0,0,1-3.0525.7277,3.9669,3.9669,0,0,1-1.4464-.2221,2.08,2.08,0,0,1-.8788-.6208,2.2392,2.2392,0,0,1-.4348-.9763,6.5706,6.5706,0,0,1-.1157-1.2872V17.565H91.0571V15.9141l1.5085-.1777Z"/><path class="cls-7" d="M101.7428,21.8788a9.4888,9.4888,0,0,0,1.7394.6657,6.9437,6.9437,0,0,0,1.792.222,3.2762,3.2762,0,0,0,1.9172-.4258,1.27,1.27,0,0,0,.5681-1.0473,1.1574,1.1574,0,0,0-.1063-.5056,1.39,1.39,0,0,0-.2666-.3816,1.9521,1.9521,0,0,0-.3284-.2666,2.2229,2.2229,0,0,0-.293-.16,13.1661,13.1661,0,0,0-1.6153-.6568q-.8516-.2832-1.704-.6208a7.9636,7.9636,0,0,1-1.0649-.5948,3.22,3.22,0,0,1-.7636-.701,2.8333,2.8333,0,0,1-.4613-.9049,4.2259,4.2259,0,0,1-.16-1.2427,3.2323,3.2323,0,0,1,1.2511-2.698,5.8424,5.8424,0,0,1,3.6476-.9763q.5148,0,1.0738.0532a10.4511,10.4511,0,0,1,1.1186.1684,9.1246,9.1246,0,0,1,1.0826.2929,4.98,4.98,0,0,1,.967.4436l-.8694,1.9171a6.082,6.082,0,0,0-1.5171-.6036,7.2085,7.2085,0,0,0-1.8368-.2309,3.1207,3.1207,0,0,0-1.7843.391,1.2124,1.2124,0,0,0-.5411,1.03,1.2265,1.2265,0,0,0,.4082.9764,3.1756,3.1756,0,0,0,.4081.2841,4.597,4.597,0,0,0,.4082.2132q.6387.2838,1.509.5947.8686.31,1.668.6656a8.5162,8.5162,0,0,1,.8966.4973,2.9557,2.9557,0,0,1,.7276.6568,3.141,3.141,0,0,1,.4965.9226,3.9592,3.9592,0,0,1,.1861,1.2958,3.4009,3.4009,0,0,1-.3462,1.544,3.2768,3.2768,0,0,1-.9852,1.1717,4.6683,4.6683,0,0,1-1.5616.7366,7.8418,7.8418,0,0,1-2.0949.257,10.7871,10.7871,0,0,1-2.2362-.2483,9.73,9.73,0,0,1-2.2893-.7986Z"/><path class="cls-7" d="M110.8829,14.0334l2.5385-.4612v2.13h3.0708v1.8634h-3.0708v3.6561q0,.3378.0265.64a1.4605,1.4605,0,0,0,.1418.5322.8933.8933,0,0,0,.355.3727,1.2665,1.2665,0,0,0,.6479.1418,3.9214,3.9214,0,0,0,.994-.1158,4.0124,4.0124,0,0,0,.8518-.3283l.39,1.6685a6.39,6.39,0,0,1-3.0525.7277,3.9669,3.9669,0,0,1-1.4464-.2221,2.0814,2.0814,0,0,1-.8789-.6208,2.2373,2.2373,0,0,1-.4347-.9763,6.5629,6.5629,0,0,1-.1157-1.2872V17.565h-1.5263V15.9141l1.5085-.1777v-1.703Z"/><path class="cls-7" d="M116.8465,20.1394a4.8489,4.8489,0,0,1,1.1186-3.4965,4.7889,4.7889,0,0,1,3.568-1.1535,5.6319,5.6319,0,0,1,2.0678.3283,3.17,3.17,0,0,1,1.3224.9408,3.72,3.72,0,0,1,.7094,1.4909,8.4313,8.4313,0,0,1,.2132,1.9791,4.7906,4.7906,0,0,1-1.127,3.4872,4.87,4.87,0,0,1-3.5945,1.1447,5.63,5.63,0,0,1-2.0678-.3284,3.1048,3.1048,0,0,1-1.314-.9409,3.6868,3.6868,0,0,1-.6923-1.4819A8.6509,8.6509,0,0,1,116.8465,20.1394Zm4.6866-2.9461a1.7293,1.7293,0,0,0-1.66.7808,4.8957,4.8957,0,0,0-.4352,2.3248,8.0445,8.0445,0,0,0,.0714,1.1,3.0562,3.0562,0,0,0,.2569.9049,1.4932,1.4932,0,0,0,.5149.6124,1.4744,1.4744,0,0,0,.8434.2221,1.7869,1.7869,0,0,0,1.704-.7808,4.7234,4.7234,0,0,0,.444-2.2894,8.2292,8.2292,0,0,0-.0714-1.1093,3.0773,3.0773,0,0,0-.257-.9137,1.52,1.52,0,0,0-.5321-.6214A1.562,1.562,0,0,0,121.5331,17.1933Z"/><path class="cls-7" d="M126.4313,15.7025h2.343l.1418.9581a2.3484,2.3484,0,0,1,.7454-.6568,3.5069,3.5069,0,0,1,1.8108-.5149,3.5613,3.5613,0,0,1,.8788.0975,5.2566,5.2566,0,0,1,.6474.2043l-.5854,1.988a2.1688,2.1688,0,0,0-1.154-.2841,2.8383,2.8383,0,0,0-1.3668.355,2.3945,2.3945,0,0,0-.346.2132,1.66,1.66,0,0,0-.3107.3018V24.648H126.698V18.241Z"/><path class="cls-7" d="M135.4124,20.7785a2.936,2.936,0,0,0,.355,1.5085,2.0742,2.0742,0,0,0,1.9171.7815,5.53,5.53,0,0,0,.9408-.0715,5.6821,5.6821,0,0,0,.746-.1777,5.6172,5.6172,0,0,0,.63-.239q.2927-.1338.5766-.2575l.479,1.5794a5.5,5.5,0,0,1-.6834.3373,6.6527,6.6527,0,0,1-.9231.3106q-.5057.133-1.0649.2221a7.1138,7.1138,0,0,1-1.11.0886,4.3652,4.3652,0,0,1-3.4789-1.1889,5.4719,5.4719,0,0,1-.9939-3.55q0-4.6317,4.4378-4.6323a5.15,5.15,0,0,1,1.9964.3284,2.8511,2.8511,0,0,1,1.2067.9137,3.4037,3.4037,0,0,1,.5947,1.3845,8.9251,8.9251,0,0,1,.16,1.7566v.9054Zm3.1594-1.6509a2.9261,2.9261,0,0,0-.3107-1.4818,1.1285,1.1285,0,0,0-1.0561-.5234,1.76,1.76,0,0,0-1.278.417,1.8033,1.8033,0,0,0-.479,1.216.9013.9013,0,0,0-.0178.1779v.1954h3.1416Z"/><path class="cls-7" d="M39.7854,34.7065a2.72,2.72,0,0,0-.2914-.13q-.1619-.0618-.3284-.1209t-.3316-.1235c-.1094-.0438-.2142-.09-.3132-.14A2.4948,2.4948,0,0,1,38.195,34a1.0957,1.0957,0,0,1-.239-.23.9072.9072,0,0,1-.1486-.3034,1.5148,1.5148,0,0,1-.05-.4092,1.14,1.14,0,0,1,.1178-.5275,1.0293,1.0293,0,0,1,.3378-.381,1.6734,1.6734,0,0,1,.5269-.2326,2.6769,2.6769,0,0,1,.6793-.08,3.7092,3.7092,0,0,1,.7282.0714,2.3049,2.3049,0,0,1,.66.2391l-.2482.5269a2.7258,2.7258,0,0,0-.4994-.1887,2.3447,2.3447,0,0,0-.6416-.0834,1.2438,1.2438,0,0,0-.7038.1637.5124.5124,0,0,0-.239.4436.5246.5246,0,0,0,.124.3627.9444.9444,0,0,0,.31.2263q.1245.0624.2727.1209t.31.1178c.1078.04.2158.0808.3257.1241s.2137.09.3133.14c.1032.0578.2007.1177.2913.18a1.0405,1.0405,0,0,1,.2357.2207,1.0049,1.0049,0,0,1,.1579.3034,1.3582,1.3582,0,0,1,.0589.4248,1.11,1.11,0,0,1-.1209.527,1.1455,1.1455,0,0,1-.3378.39,1.558,1.558,0,0,1-.5269.2454,2.6609,2.6609,0,0,1-.6881.0834,3.5278,3.5278,0,0,1-.7724-.0869,3.0053,3.0053,0,0,1-.7162-.2539l.2607-.5327a3.3532,3.3532,0,0,0,.5952.223,2.4034,2.4034,0,0,0,.6141.0746,1.2522,1.2522,0,0,0,.75-.1777.5436.5436,0,0,0,.2355-.4515.5112.5112,0,0,0-.1115-.34A.9067.9067,0,0,0,39.7854,34.7065Z"/><path class="cls-7" d="M47.1819,31.9035v4.4953H46.475V32.4675h-.0619l-1.06,3.9313h-.9612L43.307,32.4675h-.0558v3.9313h-.713V31.9035h1.2832L44.87,35.8411h.0558l1.0169-3.9376Z"/><path class="cls-7" d="M52.0738,36.3988l-.4217-1.24H49.823l-.4216,1.24h-.7626l1.6242-4.4953h.9857l1.606,4.4953ZM50.71,32.4675l-.6943,2.1147h1.4382l-.6881-2.1147Z"/><path class="cls-7" d="M54.3251,36.3988V31.9035h1.6493a1.8817,1.8817,0,0,1,1.16.3039,1.1713,1.1713,0,0,1,.3968.992,1.2234,1.2234,0,0,1-.3226.9048,1.3949,1.3949,0,0,1-.5271.3409l.9737,1.9532H56.88l-.9053-1.8417h-.9363v1.8417Zm1.643-2.4a1.2562,1.2562,0,0,0,.3258-.04.6366.6366,0,0,0,.2606-.1365.6482.6482,0,0,0,.17-.2483,1,1,0,0,0,.0621-.3752.6325.6325,0,0,0-.2325-.5516.9726.9726,0,0,0-.5859-.1674h-.93v1.5187h.9292Z"/><path class="cls-7" d="M62.2178,31.9035V32.48h-1.37v3.9188h-.7131V32.48h-1.37v-.5765Z"/><path class="cls-7" d="M69.3042,31.9035V32.48h-1.37v3.9188h-.7131V32.48h-1.37v-.5765Z"/><path class="cls-7" d="M72.2994,35.8411l1.14-3.9376h.7317l-1.42,4.4953h-.9857L70.271,31.9035h.7752l1.1905,3.9376Z"/><polygon class="cls-2" points="17.332 14.235 15.415 14.235 15.415 22.533 21.304 22.533 21.304 20.918 17.332 20.918 17.332 14.235"/><path class="cls-2" d="M25.5208,19.3711h1.5606v1.4507a4.3972,4.3972,0,0,1-1.3823.2193c-1.7259,0-2.3013-.8772-2.3013-2.6571,0-1.6983.5477-2.698,2.2731-2.698a2.22,2.22,0,0,1,1.9579.8767l1.192-1.0952a3.7314,3.7314,0,0,0-3.191-1.3554c-2.6835,0-4.0945,1.4648-4.0945,4.2582,0,2.78,1.2735,4.2867,4.0808,4.2867a6.1048,6.1048,0,0,0,3.2318-.8079V17.823H25.52Z"/></g></svg>