<?xml version="1.0" encoding="UTF-8"?><svg id="INSTRUCTIONS" xmlns="http://www.w3.org/2000/svg" viewBox="0 0 1250 703"><defs><style>.cls-1{fill:#fff;fill-rule:evenodd;}</style></defs><path class="cls-1" d="M325.5502,221.5971c-32.4927,.0054-63.792,12.2441-87.6697,34.2806-23.878,22.0365-38.5838,52.2555-41.1911,84.6431l69.2965,28.6713c6.0634-4.1638,13.2495-6.3858,20.605-6.3713h2.0459l30.805-44.6584v-.6432c.0345-9.64,2.9248-19.0538,8.3057-27.0525,5.3812-7.9984,13.0114-14.2235,21.9277-17.8884,8.9163-3.6652,18.7188-4.6063,28.1695-2.7045,9.4507,1.9021,18.126,6.5617,24.9304,13.3904,6.8044,6.8289,11.4328,15.5209,13.3007,24.9783,1.8679,9.4574,.8918,19.2564-2.8052,28.1595-3.6973,8.9031-9.9495,16.511-17.9673,21.8634-8.0178,5.3521-17.4418,8.2088-27.0821,8.2088h-1.1105l-43.8401,31.3604v1.7243c.0221,9.0922-3.3417,17.8671-9.4356,24.6147-6.0941,6.7478-14.4823,10.9851-23.5298,11.8861-9.0475,.9012-18.1066-1.5985-25.4117-7.0115-7.3054-5.4133-12.3337-13.3521-14.1052-22.2703l-49.5394-20.4587c6.5576,23.1441,19.4415,44.0001,37.203,60.2229,17.7615,16.2228,39.6966,27.1692,63.3387,31.6082,23.6421,4.439,48.0537,2.1949,70.4902-6.4804,22.4365-8.675,42.0081-23.4371,56.5143-42.6264,14.506-19.1891,23.3714-42.0447,25.5994-65.9965,2.2277-23.9518-2.27-48.0502-12.9882-69.5858-10.718-21.5353-27.2311-39.654-47.6826-52.3183-20.4515-12.6644-44.0305-19.3726-68.0858-19.3702l-.0875-.1754Zm-47.8151,196.1992l-15.8993-6.576c2.3056,4.8016,5.9584,8.8285,10.5135,11.5896,4.5549,2.761,9.8146,4.1368,15.1381,3.9599,5.3236-.177,10.4804-1.8994,14.8419-4.957,4.3615-3.0576,7.7388-7.3181,9.7203-12.2624,1.9816-4.9441,2.4815-10.3579,1.4388-15.5812-1.0426-5.2234-3.5828-10.0306-7.3105-13.8351-3.7277-3.8045-8.4819-6.4421-13.6829-7.5912-5.201-1.1488-10.624-.7593-15.6076,1.121l16.3962,6.7804c4.9532,2.0621,8.8845,6.0072,10.9289,10.9674,2.0446,4.9605,2.0346,10.5297-.0272,15.4829-2.0618,4.9532-6.0069,8.8843-10.9674,10.9288-4.9602,2.0443-10.5297,2.0346-15.4829-.0272Zm117.6379-118.2856c3.5691,5.3489,5.4709,11.6367,5.4652,18.067-.0156,8.6071-3.4416,16.8573-9.5277,22.9434-6.0861,6.0861-14.336,9.5121-22.9431,9.5275-6.4306,.0059-12.7181-1.8962-18.0672-5.465-5.3491-3.5691-9.5191-8.6446-11.9828-14.5844-2.4634-5.9398-3.1096-12.4768-1.8563-18.784,1.253-6.3072,4.3488-12.1008,8.8959-16.6478,4.547-4.547,10.3406-7.6429,16.6478-8.8961,6.3072-1.253,12.8444-.6068,18.7842,1.8566,5.9398,2.4634,11.0153,6.6336,14.5841,11.9828Zm-47.268,4.5088c-2.6816,4.0132-4.1129,8.7316-4.1129,13.5582l-.146-.0585c-.0078,3.2221,.6224,6.4139,1.8547,9.3909,1.232,2.9773,3.0414,5.6813,5.3238,7.9553,2.2824,2.2743,4.9928,4.0741,7.9742,5.2955,2.9816,1.2215,6.1758,1.8404,9.3976,1.821,4.8266,0,9.545-1.4313,13.5584-4.1129,4.0132-2.6816,7.1411-6.4931,8.9882-10.9523,1.8471-4.4592,2.3304-9.3661,1.3887-14.1001-.9416-4.734-3.2658-9.0825-6.6789-12.4956-3.4131-3.4128-7.7614-5.7373-12.4954-6.6789-4.7342-.9416-9.6408-.4584-14.1004,1.3887-4.4592,1.8472-8.2707,4.975-10.9523,8.9885Zm244.8118,6.047l-8.7671,15.227c-6.9868-4.717-15.1883-7.3062-23.616-7.4527-9.0311,0-14.6145,3.7118-14.6145,10.4047,0,6.8785,7.1026,9.2953,18.2372,13.0849v.0003c2.0174,.6866,4.1667,1.4181,6.4319,2.2296,15.84,5.6115,24.9304,12.1875,24.9304,26.7131,0,19.8449-15.6084,30.9803-37.9962,30.9803-12.0046,.0436-23.8126-3.0495-34.2523-8.9726l6.3107-16.8929c8.2958,4.3865,17.5073,6.7594,26.8885,6.9267,11.8376,0,17.5369-4.3547,17.5369-10.8138,0-6.851-7.3504-9.2614-19.4492-13.2282l-.0135-.004-.0054-.0016c-.9535-.3127-1.9366-.6354-2.9493-.9704-15.8104-5.2608-26.7404-12.1875-26.7404-28.2621,0-18.0915,14.6119-28.4962,35.362-28.4962,11.6329-.3286,23.0719,3.0042,32.7063,9.528Zm67.7182,89.5508v-79.9059h29.5469v-17.5361h-79.5531v17.5361h29.5469v79.9059h20.4593Zm72.5125-79.9059v21.9493h39.0466v17.5361h-39.0466v22.8551h45.3008v17.5361h-65.7008v-97.4127h65.7008v17.5361h-45.3008Zm84.377,79.8766l6.4292-18.9097,38.0231-.0291,6.607,18.9098h22.0942l-37.5545-97.3836h-20.4593l-36.5336,97.4127h21.3939Zm11.9831-35.1597l13.2974-38.9884,13.5911,38.9884h-26.8885Zm165.9205-24.5797l-26.6569,56.9043h-11.5144l-26.304-56.4074v59.2425h-19.5516v-97.4127h19.4923l32.7359,70.2904,31.6505-70.2904h19.6701v97.3836h-19.522v-59.7103Zm56.6563-17.8722c1.4895-2.2172,2.2867-4.8261,2.2921-7.4966,.0566-1.7874-.2532-3.5674-.9077-5.2309-.6572-1.6635-1.6457-3.175-2.9089-4.4423-1.2605-1.2673-2.7688-2.263-4.4279-2.9267-1.6619-.6637-3.4395-.9809-5.228-.9322-2.6692-.0057-5.2818,.7806-7.5065,2.2595-2.2248,1.479-3.9593,3.5839-4.9856,6.0489-1.0289,2.4653-1.3009,5.1795-.7865,7.7999,.5171,2.6204,1.7965,5.0292,3.6819,6.9216,1.8827,1.8927,4.2853,3.1839,6.9032,3.7105,2.6207,.5266,5.3356,.2653,7.8056-.7515,2.4699-1.0168,4.5815-2.7427,6.0683-4.9602Zm-20.4566-1.2937c-1.247-1.8302-1.9231-3.9884-1.9473-6.203-.0647-1.4967,.1804-2.9905,.7191-4.3881,.5386-1.3976,1.3628-2.6687,2.416-3.7334,1.0531-1.065,2.3163-1.9005,3.7088-2.4543,1.3899-.5538,2.882-.8139,4.3795-.7644,2.214,.0003,4.3795,.6556,6.2218,1.8838,1.845,1.2282,3.2833,2.9741,4.1344,5.0181,.8538,2.0438,1.0828,4.2944,.6599,6.4683-.4255,2.1739-1.4814,4.1737-3.0409,5.7478-1.5568,1.574-3.5446,2.6522-5.7155,3.0982-2.1682,.4463-4.4226,.2405-6.475-.5909-2.0524-.8315-3.8139-2.252-5.0609-4.0822Zm14.127-9.2719c0-1.9872-1.1689-3.8578-4.6462-3.8578l-4.7646-.0294v13.4152h2.1332v-5.2024h2.7204l2.6287,5.2024h2.6611l-3.1271-5.8453c.7138-.3135,1.3225-.829,1.7481-1.4833,.4255-.6542,.6491-1.4186,.6464-2.1995Zm-4.8508,2.3966h-2.3083l-.0593-4.2085h2.3675c1.8127,0,2.4564,.7892,2.4564,2.0166-.0026,.31-.0699,.616-.1992,.8985-.1266,.2823-.3124,.5349-.5441,.7415-.2317,.2063-.5037,.3623-.7973,.4573-.2962,.0951-.6087,.1274-.9158,.0945Z"/></svg>