<?xml version="1.0" encoding="UTF-8"?><svg id="INSTRUCTIONS" xmlns="http://www.w3.org/2000/svg" xmlns:xlink="http://www.w3.org/1999/xlink" viewBox="0 0 1250 703"><defs><style>.cls-1{fill:#fff;}.cls-2{clip-path:url(#clippath);}.cls-3{fill:none;}</style><clipPath id="clippath"><rect class="cls-3" x="213.3617" y="218.5114" width="825.9149" height="266.5095"/></clipPath></defs><g class="cls-2"><path class="cls-1" d="M440.3655,398.9825c-18.5349,42.005-56.6735,63.9882-97.4064,63.4791-78.1365-3.8702-100.8655-93.9647-48.6479-126.4923l2.2975,2.2941c-.8915,1.1677-3.922,3.6209-8.8043,13.1606-5.6892,11.5903-7.4236,23.1441-6.7509,30.3706,4.0661,62.9806,92.3116,75.7884,122.7071,13.5306,38.6899-85.4019-63.8616-172.1337-154.9168-105.8457l-2.1027-2.0989c23.9503-37.521,70.7471-54.3138,115.4431-43.0942,68.3482,17.0628,105.0393,88.2432,78.1813,154.6961h0Zm-73.0552-1.3517c-6.3272,9.0939-16.862,15.0482-28.7926,15.0482-19.3497,0-35.0359-15.6618-35.0359-34.9827,0-18.4668,14.3315-33.5898,32.4945-34.8907v.001c11.3123-.4535,21.8518,5.6485,26.8704,15.5457,5.4107,10.669,3.4311,23.8296-4.9966,32.704,3.153,2.1915,6.3061,4.383,9.4601,6.5745h0Zm-122.2348-23.1039c-1.6887,13.893-.6355,18.2319-.6397,19.8828l-3.0913,1.1226c-1.168-2.2836-4.137-10.3344-5.4451-21.1539-3.3446-41.3061,24.8432-78.5289,67.7541-85.4582,39.3556-5.7749,76.9843,18.6299,85.7982,52.7887l-3.1003,1.1264c-.9213-1.0162-2.5645-3.781-8.513-9.8014-47.4617-47.6062-122.0566-25.7708-132.7629,41.4931h0Zm225.0979-22.9073c-2.8099-136.5077-184.4014-187.3828-254.3139-59.464,3.0899,2.2324,7.3635,5.2522,10.4533,7.4836-5.3562,11.2315-8.9266,22.672-10.8798,34.0744-1.3582,7.4767-2.0713,15.1767-2.0713,23.0435,0,70.8388,57.5142,128.2639,128.4614,128.2639s128.4614-57.4251,128.4614-128.2639c0-1.7208-.0441-3.432-.1112-5.1375h0Z"/></g><path class="cls-1" d="M1039.2766,322.7167h-27.6767v78.4056h-21.4627v-78.4056h-27.8167v-20.3059h76.956v20.3059h0Zm-131.3652,0v22.846h41.9379v16.3568h-41.9379v39.2028h-21.4617v-98.7115h67.635v20.3059h-46.1733Zm-51.9569,29.0495c0-17.768-11.2959-30.7416-28.5232-30.7416-10.0258,0-17.5081,3.8078-22.0264,8.7431l3.3889,3.3841c-5.2257,4.3715-9.8847,10.4351-9.8847,21.2939,0,14.9485,10.5893,28.0621,28.5222,28.0621,17.2273,0,28.5232-12.9727,28.5232-30.7416h0Zm21.7456,0c0,29.0495-20.8981,51.048-50.2688,51.048-30.0753,0-50.2677-21.5748-50.2677-47.663,0-16.9224,6.6378-29.1905,16.3798-37.2289l-3.3889-3.3841c7.4833-7.7559,21.1799-13.8197,37.2768-13.8197,29.3707,0,50.2688,22.2809,50.2688,51.0476h0Zm-132.2012-9.4476c16.9435,5.9226,25.698,13.5383,25.698,28.7677,0,20.4465-15.6733,31.728-34.1697,31.728-17.0864,0-30.2182-7.6137-35.7248-21.7167l17.0845-12.6908c3.108,8.884,11.156,14.3838,19.2049,14.3838,7.0587,0,12.1435-3.8078,12.1435-10.1532,0-5.9236-3.8136-9.5896-17.9338-14.6657-15.2505-5.4989-26.5464-13.1146-26.5464-29.4733,0-15.7937,13.1318-27.7798,32.1949-27.7798,15.1085,0,26.8283,6.0638,32.3358,18.0503l-17.0863,11.8453c-3.247-7.3328-8.3308-11.4225-16.097-11.4225-6.4959,0-11.2959,3.526-11.2959,8.6021,0,5.7817,5.3656,9.3067,20.1924,14.5248h0Zm-73.3323-39.9078h21.4636v98.7115h-21.4636v-98.7115h0Zm-44.1802,79.8152c9.1783,0,14.403-4.2306,14.403-12.409s-5.2247-12.41-14.403-12.41h-11.8616v24.8189h11.8616Zm-11.8616-60.9195v20.8711h11.2979c6.635,0,11.1531-3.8078,11.1531-10.4351s-4.5182-10.436-11.1531-10.436h-11.2979Zm47.7273,50.4844c0,17.0633-13.4146,29.3314-35.0182,29.3314h-34.1707v-98.7115h32.9005c19.0612,0,31.6284,9.1658,31.6284,23.8309,0,11.1407-5.2247,17.9098-12.9909,21.153,10.4485,3.9488,17.651,11.1407,17.651,24.3962h0Zm-79.8148-70.226v59.2271c0,23.5497-14.4021,41.1757-40.8076,41.1757s-40.8066-17.626-40.8066-41.1757v-59.2271h21.4626v57.5341c0,14.3839,6.7778,22.5622,19.344,22.5622s19.345-8.1784,19.345-22.5622v-57.5341h21.4626Z"/></svg>